<svg width="208" height="78" viewBox="0 0 208 78" fill="none" xmlns="http://www.w3.org/2000/svg">
<path fill-rule="evenodd" clip-rule="evenodd" d="M193.257 31C193.257 42.55 183.84 52 172.329 52H33.6848C22.1747 52 12.7573 42.55 12.7573 31C12.7573 19.45 22.1747 10 33.6848 10H172.329C183.97 10 193.257 19.45 193.257 31Z" fill="#070707"/>
<g opacity="0.1" filter="url(#filter0_f_170_12)">
<path fill-rule="evenodd" clip-rule="evenodd" d="M187.24 39C187.24 49.45 178.555 58 167.941 58H40.0793C29.4645 58 20.7795 49.45 20.7795 39C20.7795 28.55 29.4645 20 40.0793 20H167.941C178.676 20 187.24 28.55 187.24 39Z" fill="#070707"/>
</g>
<path d="M38.2264 33.4316C38.2264 34.1934 38.0418 34.8555 37.6727 35.418C37.3035 35.9805 36.7645 36.4141 36.0555 36.7188C35.3523 37.0234 34.4969 37.1758 33.4891 37.1758C33.0437 37.1758 32.6072 37.1465 32.1795 37.0879C31.7576 37.0293 31.3504 36.9443 30.9578 36.833C30.5711 36.7158 30.202 36.5723 29.8504 36.4023V33.8711C30.4598 34.1406 31.0926 34.3838 31.7488 34.6006C32.4051 34.8174 33.0555 34.9258 33.7 34.9258C34.1453 34.9258 34.5027 34.8672 34.7723 34.75C35.0477 34.6328 35.2469 34.4717 35.3699 34.2666C35.493 34.0615 35.5545 33.8271 35.5545 33.5635C35.5545 33.2412 35.4461 32.9658 35.2293 32.7373C35.0125 32.5088 34.7137 32.2949 34.3328 32.0957C33.9578 31.8965 33.533 31.6826 33.0584 31.4541C32.7596 31.3135 32.4344 31.1436 32.0828 30.9443C31.7312 30.7393 31.3973 30.4902 31.0809 30.1973C30.7645 29.9043 30.5037 29.5498 30.2986 29.1338C30.0994 28.7119 29.9998 28.208 29.9998 27.6221C29.9998 26.8545 30.1756 26.1982 30.5271 25.6533C30.8787 25.1084 31.3797 24.6924 32.0301 24.4053C32.6863 24.1123 33.4598 23.9658 34.3504 23.9658C35.0184 23.9658 35.6541 24.0449 36.2576 24.2031C36.867 24.3555 37.5027 24.5781 38.1648 24.8711L37.2859 26.9893C36.6941 26.749 36.1639 26.5645 35.6951 26.4355C35.2264 26.3008 34.7488 26.2334 34.2625 26.2334C33.9227 26.2334 33.6326 26.2891 33.3924 26.4004C33.1521 26.5059 32.9705 26.6582 32.8475 26.8574C32.7244 27.0508 32.6629 27.2764 32.6629 27.5342C32.6629 27.8389 32.7508 28.0967 32.9266 28.3076C33.1082 28.5127 33.3777 28.7119 33.7352 28.9053C34.0984 29.0986 34.5496 29.3242 35.0887 29.582C35.7449 29.8926 36.3045 30.2178 36.7674 30.5576C37.2361 30.8916 37.5965 31.2871 37.8484 31.7441C38.1004 32.1953 38.2264 32.7578 38.2264 33.4316ZM46.1963 26.9893C47.1045 26.9893 47.8867 27.165 48.543 27.5166C49.1992 27.8623 49.7061 28.3662 50.0635 29.0283C50.4209 29.6904 50.5996 30.499 50.5996 31.4541V32.7549H44.2627C44.292 33.5107 44.5176 34.1055 44.9394 34.5391C45.3672 34.9668 45.959 35.1807 46.7148 35.1807C47.3418 35.1807 47.916 35.1162 48.4375 34.9873C48.959 34.8584 49.4951 34.665 50.0459 34.4072V36.4814C49.5596 36.7217 49.0498 36.8975 48.5166 37.0088C47.9893 37.1201 47.3477 37.1758 46.5918 37.1758C45.6074 37.1758 44.7344 36.9941 43.9727 36.6309C43.2168 36.2676 42.6221 35.7139 42.1885 34.9697C41.7607 34.2256 41.5469 33.2881 41.5469 32.1572C41.5469 31.0088 41.7402 30.0537 42.1269 29.292C42.5195 28.5244 43.0644 27.9502 43.7617 27.5693C44.459 27.1826 45.2705 26.9893 46.1963 26.9893ZM46.2139 28.8965C45.6924 28.8965 45.2588 29.0635 44.9131 29.3975C44.5732 29.7314 44.3769 30.2559 44.3242 30.9707H48.0859C48.0801 30.5723 48.0068 30.2178 47.8662 29.9072C47.7314 29.5967 47.5264 29.3506 47.251 29.1689C46.9814 28.9873 46.6357 28.8965 46.2139 28.8965ZM60.1603 26.9893C61.2092 26.9893 62.0529 27.2764 62.6916 27.8506C63.3303 28.4189 63.6496 29.333 63.6496 30.5928V37H60.9689V31.2607C60.9689 30.5576 60.84 30.0273 60.5822 29.6699C60.3303 29.3125 59.9318 29.1338 59.3869 29.1338C58.5666 29.1338 58.007 29.4121 57.7082 29.9688C57.4094 30.5254 57.26 31.3281 57.26 32.377V37H54.5793V27.1738H56.6271L56.9875 28.4307H57.1369C57.3478 28.0908 57.6086 27.8154 57.9191 27.6045C58.2355 27.3936 58.5842 27.2383 58.965 27.1387C59.3518 27.0391 59.7502 26.9893 60.1603 26.9893ZM71.3207 37.1758C70.225 37.1758 69.3314 36.748 68.64 35.8926C67.9545 35.0312 67.6117 33.7686 67.6117 32.1045C67.6117 30.4229 67.9604 29.1514 68.6576 28.29C69.3549 27.4229 70.266 26.9893 71.391 26.9893C71.8598 26.9893 72.2729 27.0537 72.6303 27.1826C72.9877 27.3115 73.2953 27.4844 73.5531 27.7012C73.8168 27.918 74.0395 28.1611 74.2211 28.4307H74.309C74.2738 28.2432 74.2299 27.9678 74.1771 27.6045C74.1303 27.2354 74.1068 26.8574 74.1068 26.4707V23.3242H76.7963V37H74.7396L74.2211 35.7256H74.1068C73.9369 35.9951 73.723 36.2412 73.4652 36.4639C73.2133 36.6807 72.9115 36.8535 72.56 36.9824C72.2084 37.1113 71.7953 37.1758 71.3207 37.1758ZM72.2611 35.04C72.9936 35.04 73.5092 34.8232 73.808 34.3896C74.1127 33.9502 74.2738 33.291 74.2914 32.4121V32.1221C74.2914 31.167 74.1449 30.4375 73.852 29.9336C73.559 29.4238 73.0141 29.1689 72.2172 29.1689C71.6254 29.1689 71.1625 29.4238 70.8285 29.9336C70.4945 30.4434 70.3275 31.1787 70.3275 32.1396C70.3275 33.1006 70.4945 33.8242 70.8285 34.3105C71.1684 34.7969 71.6459 35.04 72.2611 35.04ZM99.4158 26.9893C100.529 26.9893 101.37 27.2764 101.938 27.8506C102.512 28.4189 102.8 29.333 102.8 30.5928V37H100.11V31.2607C100.11 30.5576 99.99 30.0273 99.7498 29.6699C99.5096 29.3125 99.1375 29.1338 98.6336 29.1338C97.9246 29.1338 97.4207 29.3887 97.1219 29.8984C96.823 30.4023 96.6736 31.126 96.6736 32.0693V37H93.993V31.2607C93.993 30.792 93.9402 30.3994 93.8348 30.083C93.7293 29.7666 93.5682 29.5293 93.3514 29.3711C93.1346 29.2129 92.8562 29.1338 92.5164 29.1338C92.0184 29.1338 91.6258 29.2598 91.3387 29.5117C91.0574 29.7578 90.8553 30.124 90.7322 30.6104C90.615 31.0908 90.5564 31.6797 90.5564 32.377V37H87.8758V27.1738H89.9236L90.284 28.4307H90.4334C90.6326 28.0908 90.8816 27.8154 91.1805 27.6045C91.4852 27.3936 91.8191 27.2383 92.1824 27.1387C92.5457 27.0391 92.9148 26.9893 93.2898 26.9893C94.0105 26.9893 94.6199 27.1064 95.118 27.3408C95.6219 27.5752 96.0086 27.9385 96.2781 28.4307H96.5154C96.8084 27.9268 97.2215 27.5605 97.7547 27.332C98.2937 27.1035 98.8475 26.9893 99.4158 26.9893ZM111.411 26.9893C112.319 26.9893 113.102 27.165 113.758 27.5166C114.414 27.8623 114.921 28.3662 115.278 29.0283C115.636 29.6904 115.814 30.499 115.814 31.4541V32.7549H109.478C109.507 33.5107 109.732 34.1055 110.154 34.5391C110.582 34.9668 111.174 35.1807 111.93 35.1807C112.557 35.1807 113.131 35.1162 113.652 34.9873C114.174 34.8584 114.71 34.665 115.261 34.4072V36.4814C114.774 36.7217 114.265 36.8975 113.731 37.0088C113.204 37.1201 112.562 37.1758 111.807 37.1758C110.822 37.1758 109.949 36.9941 109.188 36.6309C108.432 36.2676 107.837 35.7139 107.403 34.9697C106.976 34.2256 106.762 33.2881 106.762 32.1572C106.762 31.0088 106.955 30.0537 107.342 29.292C107.734 28.5244 108.279 27.9502 108.977 27.5693C109.674 27.1826 110.485 26.9893 111.411 26.9893ZM111.429 28.8965C110.907 28.8965 110.474 29.0635 110.128 29.3975C109.788 29.7314 109.592 30.2559 109.539 30.9707H113.301C113.295 30.5723 113.222 30.2178 113.081 29.9072C112.946 29.5967 112.741 29.3506 112.466 29.1689C112.196 28.9873 111.851 28.8965 111.429 28.8965ZM126.65 34.082C126.65 34.75 126.491 35.3154 126.175 35.7783C125.864 36.2354 125.399 36.584 124.778 36.8242C124.156 37.0586 123.383 37.1758 122.457 37.1758C121.772 37.1758 121.183 37.1318 120.691 37.0439C120.204 36.9561 119.712 36.8096 119.214 36.6045V34.3896C119.747 34.6299 120.319 34.8291 120.928 34.9873C121.543 35.1396 122.082 35.2158 122.545 35.2158C123.067 35.2158 123.439 35.1396 123.661 34.9873C123.89 34.8291 124.004 34.624 124.004 34.3721C124.004 34.208 123.957 34.0615 123.863 33.9326C123.776 33.7979 123.582 33.6484 123.283 33.4844C122.985 33.3145 122.516 33.0947 121.877 32.8252C121.262 32.5674 120.755 32.3066 120.357 32.043C119.964 31.7793 119.671 31.4688 119.478 31.1113C119.29 30.748 119.196 30.2881 119.196 29.7314C119.196 28.8232 119.548 28.1406 120.251 27.6836C120.96 27.2207 121.906 26.9893 123.09 26.9893C123.699 26.9893 124.279 27.0508 124.83 27.1738C125.387 27.2969 125.958 27.4932 126.544 27.7627L125.736 29.6963C125.249 29.4854 124.789 29.3125 124.356 29.1777C123.928 29.043 123.491 28.9756 123.046 28.9756C122.654 28.9756 122.358 29.0283 122.158 29.1338C121.959 29.2393 121.86 29.4004 121.86 29.6172C121.86 29.7754 121.909 29.916 122.009 30.0391C122.114 30.1621 122.314 30.2998 122.607 30.4521C122.905 30.5986 123.342 30.7891 123.916 31.0234C124.473 31.252 124.956 31.4922 125.366 31.7441C125.777 31.9902 126.093 32.2979 126.316 32.667C126.538 33.0303 126.65 33.502 126.65 34.082ZM137.397 34.082C137.397 34.75 137.239 35.3154 136.922 35.7783C136.612 36.2354 136.146 36.584 135.525 36.8242C134.904 37.0586 134.13 37.1758 133.204 37.1758C132.519 37.1758 131.93 37.1318 131.438 37.0439C130.952 36.9561 130.459 36.8096 129.961 36.6045V34.3896C130.495 34.6299 131.066 34.8291 131.675 34.9873C132.29 35.1396 132.829 35.2158 133.292 35.2158C133.814 35.2158 134.186 35.1396 134.409 34.9873C134.637 34.8291 134.751 34.624 134.751 34.3721C134.751 34.208 134.704 34.0615 134.611 33.9326C134.523 33.7979 134.329 33.6484 134.031 33.4844C133.732 33.3145 133.263 33.0947 132.624 32.8252C132.009 32.5674 131.502 32.3066 131.104 32.043C130.711 31.7793 130.418 31.4688 130.225 31.1113C130.037 30.748 129.944 30.2881 129.944 29.7314C129.944 28.8232 130.295 28.1406 130.998 27.6836C131.707 27.2207 132.654 26.9893 133.837 26.9893C134.447 26.9893 135.027 27.0508 135.578 27.1738C136.134 27.2969 136.705 27.4932 137.291 27.7627L136.483 29.6963C135.996 29.4854 135.537 29.3125 135.103 29.1777C134.675 29.043 134.239 28.9756 133.793 28.9756C133.401 28.9756 133.105 29.0283 132.906 29.1338C132.706 29.2393 132.607 29.4004 132.607 29.6172C132.607 29.7754 132.657 29.916 132.756 30.0391C132.862 30.1621 133.061 30.2998 133.354 30.4521C133.653 30.5986 134.089 30.7891 134.663 31.0234C135.22 31.252 135.704 31.4922 136.114 31.7441C136.524 31.9902 136.84 32.2979 137.063 32.667C137.286 33.0303 137.397 33.502 137.397 34.082ZM145.314 26.9717C146.632 26.9717 147.643 27.2588 148.346 27.833C149.049 28.4072 149.401 29.2803 149.401 30.4521V37H147.529L147.01 35.6641H146.94C146.659 36.0156 146.372 36.3027 146.079 36.5254C145.786 36.748 145.449 36.9121 145.068 37.0176C144.687 37.123 144.224 37.1758 143.679 37.1758C143.099 37.1758 142.578 37.0645 142.115 36.8418C141.658 36.6191 141.297 36.2793 141.034 35.8223C140.77 35.3594 140.638 34.7734 140.638 34.0645C140.638 33.0215 141.004 32.2539 141.737 31.7617C142.469 31.2637 143.568 30.9883 145.033 30.9355L146.738 30.8828V30.4521C146.738 29.9365 146.603 29.5586 146.334 29.3184C146.064 29.0781 145.689 28.958 145.209 28.958C144.734 28.958 144.268 29.0254 143.811 29.1602C143.354 29.2949 142.897 29.4648 142.44 29.6699L141.552 27.8594C142.074 27.584 142.657 27.3672 143.301 27.209C143.952 27.0508 144.623 26.9717 145.314 26.9717ZM146.738 32.4473L145.701 32.4824C144.834 32.5059 144.23 32.6611 143.89 32.9482C143.556 33.2354 143.389 33.6133 143.389 34.082C143.389 34.4922 143.509 34.7852 143.75 34.9609C143.99 35.1309 144.303 35.2158 144.69 35.2158C145.264 35.2158 145.748 35.0459 146.14 34.7061C146.539 34.3662 146.738 33.8828 146.738 33.2559V32.4473ZM156.844 41.3242C155.472 41.3242 154.424 41.084 153.697 40.6035C152.976 40.1289 152.616 39.4609 152.616 38.5996C152.616 38.0078 152.801 37.5127 153.17 37.1143C153.539 36.7158 154.081 36.4316 154.796 36.2617C154.52 36.1445 154.28 35.9541 154.075 35.6904C153.87 35.4209 153.767 35.1367 153.767 34.8379C153.767 34.4629 153.876 34.1523 154.093 33.9062C154.309 33.6543 154.623 33.4082 155.033 33.168C154.517 32.9453 154.107 32.5879 153.803 32.0957C153.504 31.6035 153.354 31.0234 153.354 30.3555C153.354 29.6406 153.51 29.0342 153.82 28.5361C154.137 28.0322 154.594 27.6484 155.191 27.3848C155.795 27.1211 156.527 26.9893 157.388 26.9893C157.57 26.9893 157.781 27.001 158.021 27.0244C158.262 27.0479 158.481 27.0742 158.68 27.1035C158.886 27.1328 159.023 27.1562 159.094 27.1738H162.521V28.5361L160.983 28.9316C161.124 29.1484 161.229 29.3799 161.3 29.626C161.37 29.8721 161.405 30.1328 161.405 30.4082C161.405 31.4629 161.036 32.2861 160.298 32.8779C159.565 33.4639 158.546 33.7568 157.239 33.7568C156.929 33.7393 156.636 33.7158 156.36 33.6865C156.225 33.792 156.123 33.9033 156.053 34.0205C155.982 34.1377 155.947 34.2607 155.947 34.3896C155.947 34.5186 156 34.627 156.105 34.7148C156.217 34.7969 156.381 34.8613 156.597 34.9082C156.82 34.9492 157.096 34.9697 157.424 34.9697H159.094C160.172 34.9697 160.992 35.2012 161.554 35.6641C162.123 36.127 162.407 36.8066 162.407 37.7031C162.407 38.8516 161.927 39.7422 160.966 40.375C160.011 41.0078 158.637 41.3242 156.844 41.3242ZM156.958 39.5752C157.596 39.5752 158.144 39.5137 158.601 39.3906C159.064 39.2734 159.419 39.1035 159.665 38.8809C159.911 38.6641 160.034 38.4033 160.034 38.0986C160.034 37.8525 159.961 37.6562 159.814 37.5098C159.674 37.3691 159.457 37.2695 159.164 37.2109C158.877 37.1523 158.508 37.123 158.056 37.123H156.668C156.34 37.123 156.044 37.1758 155.78 37.2812C155.522 37.3867 155.317 37.5332 155.165 37.7207C155.012 37.9141 154.936 38.1367 154.936 38.3887C154.936 38.7578 155.112 39.0479 155.464 39.2588C155.821 39.4697 156.319 39.5752 156.958 39.5752ZM157.388 32.1221C157.892 32.1221 158.262 31.9668 158.496 31.6562C158.73 31.3457 158.847 30.9238 158.847 30.3906C158.847 29.7988 158.724 29.3564 158.478 29.0635C158.238 28.7646 157.875 28.6152 157.388 28.6152C156.896 28.6152 156.527 28.7646 156.281 29.0635C156.035 29.3564 155.912 29.7988 155.912 30.3906C155.912 30.9238 156.032 31.3457 156.272 31.6562C156.518 31.9668 156.89 32.1221 157.388 32.1221ZM169.999 26.9893C170.907 26.9893 171.689 27.165 172.346 27.5166C173.002 27.8623 173.509 28.3662 173.866 29.0283C174.224 29.6904 174.402 30.499 174.402 31.4541V32.7549H168.065C168.095 33.5107 168.32 34.1055 168.742 34.5391C169.17 34.9668 169.762 35.1807 170.518 35.1807C171.145 35.1807 171.719 35.1162 172.24 34.9873C172.762 34.8584 173.298 34.665 173.849 34.4072V36.4814C173.362 36.7217 172.853 36.8975 172.319 37.0088C171.792 37.1201 171.15 37.1758 170.395 37.1758C169.41 37.1758 168.537 36.9941 167.775 36.6309C167.02 36.2676 166.425 35.7139 165.991 34.9697C165.563 34.2256 165.35 33.2881 165.35 32.1572C165.35 31.0088 165.543 30.0537 165.93 29.292C166.322 28.5244 166.867 27.9502 167.564 27.5693C168.262 27.1826 169.073 26.9893 169.999 26.9893ZM170.017 28.8965C169.495 28.8965 169.062 29.0635 168.716 29.3975C168.376 29.7314 168.18 30.2559 168.127 30.9707H171.889C171.883 30.5723 171.81 30.2178 171.669 29.9072C171.534 29.5967 171.329 29.3506 171.054 29.1689C170.784 28.9873 170.438 28.8965 170.017 28.8965Z" fill="white"/>
<defs>
<filter id="filter0_f_170_12" x="0.779541" y="0" width="206.461" height="78" filterUnits="userSpaceOnUse" color-interpolation-filters="sRGB">
<feFlood flood-opacity="0" result="BackgroundImageFix"/>
<feBlend mode="normal" in="SourceGraphic" in2="BackgroundImageFix" result="shape"/>
<feGaussianBlur stdDeviation="10" result="effect1_foregroundBlur_170_12"/>
</filter>
</defs>
</svg>
